<?xml version="1.0" encoding="UTF-8" standalone="no"?>
<!-- Created with Inkscape (http://www.inkscape.org/) -->

<svg
   width="20"
   height="40"
   viewBox="0 0 5.2916665 10.583333"
   version="1.1"
   id="svg9118"
   xml:space="preserve"
   inkscape:version="1.2.2 (732a01da63, 2022-12-09)"
   sodipodi:docname="cactus.svg"
   xmlns:inkscape="http://www.inkscape.org/namespaces/inkscape"
   xmlns:sodipodi="http://sodipodi.sourceforge.net/DTD/sodipodi-0.dtd"
   xmlns="http://www.w3.org/2000/svg"
   xmlns:svg="http://www.w3.org/2000/svg"><sodipodi:namedview
     id="namedview9120"
     pagecolor="#505050"
     bordercolor="#eeeeee"
     borderopacity="1"
     inkscape:showpageshadow="0"
     inkscape:pageopacity="0"
     inkscape:pagecheckerboard="0"
     inkscape:deskcolor="#505050"
     inkscape:document-units="mm"
     showgrid="false"
     inkscape:zoom="11.313709"
     inkscape:cx="-0.88388347"
     inkscape:cy="24.262601"
     inkscape:window-width="1920"
     inkscape:window-height="991"
     inkscape:window-x="-9"
     inkscape:window-y="-9"
     inkscape:window-maximized="1"
     inkscape:current-layer="layer1" /><defs
     id="defs9115" /><g
     inkscape:label="Layer 1"
     inkscape:groupmode="layer"
     id="layer1"><path
       style="fill:#ffffff;stroke:#ffffff;stroke-width:0;stroke-linecap:square;stroke-linejoin:bevel;paint-order:markers fill stroke"
       d="m 1.6169492,10.363653 -0.00515,0.210377 1.8805763,-0.01284 0.00401,-3.3715101 0.8272611,-0.00223 0.00256,-0.2206419 0.1949843,-0.00256 0.00511,-0.1770244 H 4.726414 l 0.00769,-0.202682 0.2334682,-0.00511 V 6.3357034 l 0.2001177,-0.00511 0.010273,-3.096665 -0.202682,-0.00256 0.00256,-0.2283371 -0.6490937,0.00256 -0.00511,0.2488618 -0.1949843,0.00511 v 3.1171896 l -0.6465302,0.00769 0.01539,-5.2645867 H 3.284551 L 3.289698,0.9325709 2.2172822,0.91462369 2.2121353,1.1429611 H 2.0068974 l 0.01539,3.9971857 h -0.623413 l -0.012835,-2.9837789 -0.202682,-0.00256 0.00515,-0.1847221 -0.64396258,0.00511 -0.005145,0.2052463 -0.19498421,-0.00256 V 5.335121 H 0.5419666 l -0.0128352,0.1949843 0.24629711,-0.00511 0.002559,0.246297 0.18985312,0.00256 -0.00769,0.1924201 0.20011527,0.00511 -0.00256,0.2001154 0.8338161,0.00769 0.00769,4.1767772 z"
       id="path9668" /></g></svg>
