<?xml version="1.0" encoding="UTF-8" standalone="no"?>
<!-- Created with Inkscape (http://www.inkscape.org/) -->

<svg
   width="50"
   height="50"
   viewBox="0 0 13.229166 13.229167"
   version="1.1"
   id="svg5"
   xml:space="preserve"
   inkscape:version="1.2.2 (732a01da63, 2022-12-09)"
   sodipodi:docname="dino.svg"
   xmlns:inkscape="http://www.inkscape.org/namespaces/inkscape"
   xmlns:sodipodi="http://sodipodi.sourceforge.net/DTD/sodipodi-0.dtd"
   xmlns="http://www.w3.org/2000/svg"
   xmlns:svg="http://www.w3.org/2000/svg"><sodipodi:namedview
     id="namedview7"
     pagecolor="#505050"
     bordercolor="#eeeeee"
     borderopacity="1"
     inkscape:showpageshadow="0"
     inkscape:pageopacity="0"
     inkscape:pagecheckerboard="0"
     inkscape:deskcolor="#505050"
     inkscape:document-units="mm"
     showgrid="false"
     inkscape:zoom="11.459933"
     inkscape:cx="15.401487"
     inkscape:cy="27.00714"
     inkscape:window-width="1920"
     inkscape:window-height="991"
     inkscape:window-x="-9"
     inkscape:window-y="-9"
     inkscape:window-maximized="1"
     inkscape:current-layer="layer1" /><defs
     id="defs2" /><g
     inkscape:label="Layer 1"
     inkscape:groupmode="layer"
     id="layer1"><g
       id="g4698"
       transform="matrix(1.3328466,0,0,1.3328466,-0.39340039,-3.1301167)"><path
         style="fill:#ffffff;fill-opacity:1;stroke:#ffffff;stroke-width:0;stroke-linecap:square;stroke-linejoin:bevel;stroke-dasharray:none;stroke-opacity:1;paint-order:markers fill stroke"
         d="M 5.5641324,7.0994634 5.5295008,4.6868003 H 5.9335354 L 5.9219917,4.340485 H 8.8310401 L 8.8194961,4.698344 H 9.2004429 L 9.1773549,6.326026 7.33034,6.33757 7.341884,6.7762362 8.4500931,6.7646922 v 0.357859 H 6.9493939 v 0.6810867 l 0.7618936,0.011544 V 8.5655318 L 7.3996038,8.5539878 7.3649718,8.1499532 6.903218,8.1614972 6.960937,9.4890391 6.591534,9.4774951 6.57999,10.066231 6.2567623,10.031601 6.2221313,10.389461 H 5.8180972 l 0.057719,1.477612 h 0.3578593 v 0.380946 l -0.7041745,-0.01154 0.023087,-1.142841 -0.3924908,0.01154 0.023087,-0.346316 -0.4040346,-0.01154 -0.023087,0.357859 -0.3463153,0.01154 v 0.39249 l -0.3463155,-0.01154 -0.023087,0.39249 0.357859,-0.02309 -0.011544,0.380946 h -0.727262 l 0.023087,-1.489156 H 3.3015388 L 3.3130826,10.401002 2.9552233,10.389459 2.9898549,10.054687 2.608908,10.043143 2.6204518,9.6506529 2.1933296,9.6391091 V 9.2927939 L 1.7777519,9.2697061 1.8239272,7.0994634 h 0.369403 l -0.023088,0.7157183 0.369403,0.011544 0.034632,0.3694028 L 2.94368,8.1845845 2.9321363,8.5655313 H 3.7055737 L 3.7171174,8.1614969 4.0518889,8.1499532 4.0634327,7.8036379 4.5944496,7.7805504 4.5829058,7.4688665 h 0.577192 V 7.0994634 Z"
         id="path356" /><rect
         style="fill:#000000;fill-opacity:1;stroke:#ffffff;stroke-width:0;stroke-linecap:square;stroke-linejoin:bevel;stroke-dasharray:none;stroke-opacity:1;paint-order:markers fill stroke"
         id="rect3394"
         width="0.47751969"
         height="0.46119425"
         x="6.2036748"
         y="4.8527431" /></g></g></svg>
