<?xml version="1.0" encoding="UTF-8" standalone="no"?>
<!-- Created with Inkscape (http://www.inkscape.org/) -->

<svg
   width="50"
   height="50"
   viewBox="0 0 13.229166 13.229167"
   version="1.1"
   id="svg5"
   xml:space="preserve"
   inkscape:version="1.2.2 (732a01da63, 2022-12-09)"
   sodipodi:docname="dino.svg"
   xmlns:inkscape="http://www.inkscape.org/namespaces/inkscape"
   xmlns:sodipodi="http://sodipodi.sourceforge.net/DTD/sodipodi-0.dtd"
   xmlns="http://www.w3.org/2000/svg"
   xmlns:svg="http://www.w3.org/2000/svg"><sodipodi:namedview
     id="namedview7"
     pagecolor="#505050"
     bordercolor="#eeeeee"
     borderopacity="1"
     inkscape:showpageshadow="0"
     inkscape:pageopacity="0"
     inkscape:pagecheckerboard="0"
     inkscape:deskcolor="#505050"
     inkscape:document-units="mm"
     showgrid="false"
     inkscape:zoom="11.459933"
     inkscape:cx="49.302208"
     inkscape:cy="33.900722"
     inkscape:window-width="1920"
     inkscape:window-height="991"
     inkscape:window-x="-9"
     inkscape:window-y="-9"
     inkscape:window-maximized="1"
     inkscape:current-layer="layer1" /><defs
     id="defs2" /><g
     inkscape:label="Layer 1"
     inkscape:groupmode="layer"
     id="layer1"><path
       style="fill:#ffffff;fill-opacity:1;stroke:#ffffff;stroke-width:0;stroke-linecap:square;stroke-linejoin:bevel;stroke-dasharray:none;stroke-opacity:1;paint-order:markers fill stroke"
       d="M 7.0227346,6.332379 6.976576,3.1166691 H 7.5150921 L 7.4997061,2.655084 h 3.8773149 l -0.01539,0.4769711 h 0.507744 l -0.03077,2.1694504 -2.4617876,0.015386 0.015386,0.5846748 1.4770726,-0.015386 V 6.3631515 H 8.8690756 v 0.907784 l 1.0154873,0.015386 V 8.2864232 L 9.4691364,8.2710369 9.4229772,7.7325207 8.8075303,7.7479071 8.8844608,9.5173168 8.3921033,9.5019304 8.3767169,10.286625 7.945904,10.240469 7.8997462,10.717441 H 7.3612307 l 0.076931,1.96943 h 0.4769715 v 0.507743 l -0.9385566,-0.01538 0.030771,-1.523232 -0.52313,0.01538 0.030771,-0.461586 -0.5385161,-0.01538 -0.030771,0.476971 -0.4615852,0.01538 v 0.523129 l -0.4615854,-0.01538 -0.030771,0.523129 0.4769712,-0.03078 -0.015386,0.507742 H 4.4840155 L 4.514787,11.209795 H 4.0070444 l 0.015386,-0.476972 -0.4769716,-0.01539 0.046159,-0.446199 -0.5077437,-0.01539 0.015386,-0.5231288 -0.5692884,-0.015386 V 9.2557521 L 1.9760702,9.2249796 2.0376148,6.332379 H 2.5299723 L 2.4991993,7.2863217 2.9915569,7.3017077 3.0377159,7.794065 3.5300732,7.778679 3.5146872,8.2864227 H 4.5455609 L 4.5609469,7.7479067 5.007146,7.7325207 5.0225321,7.2709355 5.7302961,7.2401634 5.71491,6.8247366 H 6.4842184 V 6.332379 Z"
       id="path356" /><rect
       style="fill:#000000;fill-opacity:1;stroke:#ffffff;stroke-width:0;stroke-linecap:square;stroke-linejoin:bevel;stroke-dasharray:none;stroke-opacity:1;paint-order:markers fill stroke"
       id="rect3394"
       width="0.67064029"
       height="0.64771241"
       x="7.8660774"
       y="3.333524" /></g></svg>
